<?xml version="1.0" encoding="UTF-8"?>
<svg id="b" data-name="Layer 2" xmlns="http://www.w3.org/2000/svg" viewBox="0 0 31.55 24.44">
  <g id="c" data-name="Layer 1">
    <g>
      <path d="M31.55,7.42H0v15.96c0,.27.1.54.31.74.2.21.47.31.74.31h29.45c.27,0,.54-.1.74-.31.2-.21.31-.47.31-.74V7.42Z" fill="#efefef"/>
      <path d="M31.55,4.76c0-.27-.1-.54-.31-.74-.21-.21-.47-.31-.74-.31H1.05c-.27,0-.54.1-.74.31-.21.21-.31.48-.31.74v2.66h31.55v-2.66Z" fill="#d9d8d7"/>
      <g>
        <rect x="8.04" y="3.71" width="15.47" height="3.71" fill="#3f4a5a"/>
        <path d="M15.78,0c-2.05,0-3.71,1.66-3.71,3.71s1.66,3.71,3.71,3.71,3.71-1.66,3.71-3.71-1.66-3.71-3.71-3.71ZM15.78,5.12c-.77,0-1.4-.63-1.4-1.4s.63-1.4,1.4-1.4,1.4.63,1.4,1.4-.63,1.4-1.4,1.4Z" fill="#3f4a5a"/>
      </g>
      <g>
        <g>
          <rect x="2.48" y="9.9" width="12.06" height="12.06" fill="#fad97f"/>
          <g>
            <polygon points="10.57 13.71 6.45 13.71 6.17 19.7 10.85 19.7 10.57 13.71" fill="#3f4a5a"/>
            <path d="M13.05,20.63c-.07-.21-.17-.4-.33-.57-.16-.17-.34-.29-.54-.37l-2.13-.84c-.11-.04-.2-.12-.27-.22-.07-.11-.1-.22-.1-.34v-1.04h-2.33v1.04c0,.12-.04.23-.1.34-.07.1-.17.18-.27.22l-2.13.84c-.2.08-.39.21-.54.37-.16.17-.27.36-.33.57l-.42,1.33h9.92l-.42-1.33Z" fill="#fff"/>
            <path d="M5.63,20.48c0,.53-.08,1.06-.23,1.48h6.2c-.14-.42-.23-.95-.23-1.48,0-.38.04-.74.12-1.06l-.57-.23-.25.99c-.12.47-.38.91-.8,1.23-.41.33-.87.46-1.38.46s-.97-.13-1.39-.46c-.41-.32-.68-.76-.79-1.23l-.25-.99-.57.23c.08.32.12.68.12,1.06Z" fill="#3f4a5a"/>
            <path d="M8.51,11.98c-1.27,0-2.18.93-2.18,2.89,0,1.66.97,3.07,2.18,3.07s2.18-1.41,2.18-3.07c0-1.96-.91-2.89-2.18-2.89Z" fill="#fff"/>
            <path d="M10.46,12.09h-3.91s-.28,1.95.08,2.35c.02-.16.16-.21.42-.21,0,0,.22-.24.38-.91.12.46.06.93.06.93.28.02.62.05,1.02.05.1,0,.2,0,.29,0,0,0,.12-.07.17-.25.08.1.08.24.08.24.84-.04,1.3-.14,1.33.16.36-.4.08-2.35.08-2.35Z" fill="#3f4a5a"/>
            <path d="M6.97,18.84c.11-.04.2-.12.27-.22.07-.11.1-.22.1-.34v-.44h-.66c-.08-.62-.13-1.23-.13-1.8,0-1.7.12-2.35.59-2.92.61-.74,1.36-.9,1.36-.9,0,0,.75.15,1.36.9.47.58.59,1.22.59,2.92,0,.58-.04,1.19-.13,1.8h-.65v.44c0,.12.03.23.1.34.07.1.17.18.27.22l1.22.49c.15-.19.23-.42.23-.64v-.84c0-1.41-.04-3.26-.34-4.6-.26-1.16-1.25-2.27-2.64-1.97-1.4-.3-2.38.81-2.64,1.97-.3,1.35-.34,3.19-.34,4.6v.84c0,.22.08.45.23.64l1.22-.49Z" fill="#3f4a5a"/>
          </g>
        </g>
        <g>
          <rect x="17.01" y="21.04" width="6.03" height=".93" fill="#cccbca"/>
          <rect x="17.01" y="19.18" width="12.06" height=".93" fill="#cccbca"/>
          <rect x="17.01" y="17.32" width="12.06" height=".93" fill="#cccbca"/>
          <rect x="17.01" y="15.47" width="12.06" height=".93" fill="#cccbca"/>
        </g>
        <rect x="17.01" y="9.9" width="12.06" height="2.79" fill="#3f4a5a"/>
      </g>
    </g>
  </g>
</svg>