<?xml version="1.0" encoding="UTF-8"?>
<svg id="b" data-name="Layer 2" xmlns="http://www.w3.org/2000/svg" viewBox="0 0 19.84 31.55">
  <g id="c" data-name="Layer 1">
    <g>
      <path d="M9.92,0C4.44,0,0,4.44,0,9.92c0,2.9,1.25,5.51,3.23,7.33.09.08.19.16.29.25,1.55,1.41,2.52,3.45,2.52,5.71v.86h7.75v-.86c0-2.26.97-4.29,2.53-5.71.09-.09.19-.17.28-.25,1.98-1.82,3.23-4.43,3.23-7.33C19.84,4.44,15.4,0,9.92,0Z" fill="#efefef"/>
      <path d="M17.81,9.92c0,4.35-3.53,7.88-7.89,7.88s-7.89-3.53-7.89-7.88,3.53-7.89,7.89-7.89,7.89,3.54,7.89,7.89Z" fill="#d9d8d7"/>
      <g>
        <g>
          <polygon points="10.35 4.19 9.49 4.19 9.23 5.46 10.61 5.46 10.35 4.19" fill="#3f4a5a"/>
          <polygon points="7.43 4.74 6.68 5.17 7.09 6.4 8.28 5.71 7.43 4.74" fill="#3f4a5a"/>
          <polygon points="5.18 6.68 4.75 7.43 5.71 8.28 6.4 7.09 5.18 6.68" fill="#3f4a5a"/>
          <polygon points="4.2 9.48 4.2 10.35 5.46 10.6 5.46 9.23 4.2 9.48" fill="#3f4a5a"/>
          <polygon points="4.75 12.4 5.18 13.15 6.4 12.74 5.71 11.55 4.75 12.4" fill="#3f4a5a"/>
          <polygon points="6.68 14.66 7.43 15.09 8.28 14.12 7.09 13.43 6.68 14.66" fill="#3f4a5a"/>
          <polygon points="9.49 15.64 10.35 15.64 10.61 14.38 9.23 14.38 9.49 15.64" fill="#3f4a5a"/>
          <polygon points="12.41 15.09 13.16 14.66 12.74 13.43 11.55 14.12 12.41 15.09" fill="#3f4a5a"/>
          <polygon points="14.66 13.15 15.09 12.4 14.12 11.55 13.44 12.74 14.66 13.15" fill="#3f4a5a"/>
          <polygon points="15.64 10.35 15.64 9.48 14.38 9.23 14.38 10.6 15.64 10.35" fill="#3f4a5a"/>
          <polygon points="15.09 7.43 14.66 6.68 13.44 7.09 14.12 8.28 15.09 7.43" fill="#3f4a5a"/>
          <polygon points="13.16 5.17 12.4 4.74 11.55 5.71 12.74 6.4 13.16 5.17" fill="#3f4a5a"/>
        </g>
        <path d="M9.92,5.41c-2.49,0-4.51,2.02-4.51,4.51s2.02,4.51,4.51,4.51,4.51-2.02,4.51-4.51-2.02-4.51-4.51-4.51ZM9.92,11.17c-.69,0-1.25-.56-1.25-1.25s.56-1.25,1.25-1.25,1.25.56,1.25,1.25-.56,1.25-1.25,1.25Z" fill="#3f4a5a"/>
        <path d="M9.92,7.75c-1.19,0-2.16.97-2.16,2.16s.97,2.17,2.16,2.17,2.17-.97,2.17-2.17-.97-2.16-2.17-2.16ZM9.92,11c-.6,0-1.08-.48-1.08-1.08s.48-1.08,1.08-1.08,1.08.49,1.08,1.08-.49,1.08-1.08,1.08Z" fill="#f67656"/>
      </g>
      <g>
        <polygon points="9.92 31.55 7.24 29.95 12.6 29.95 9.92 31.55" fill="#d9d8d7"/>
        <path d="M14.34,29.32c0,.16-.06.32-.19.45-.12.12-.28.18-.45.18h-7.57c-.16,0-.32-.06-.45-.18-.12-.12-.18-.28-.18-.45v-5.26h8.84v5.26Z" fill="#333c49"/>
        <rect x="5.5" y="24.72" width="8.84" height=".65" fill="#3f4a5a"/>
        <rect x="5.5" y="26.03" width="8.84" height=".65" fill="#3f4a5a"/>
        <rect x="5.5" y="27.34" width="8.84" height=".65" fill="#3f4a5a"/>
        <rect x="5.5" y="28.64" width="8.84" height=".66" fill="#3f4a5a"/>
      </g>
    </g>
  </g>
</svg>